<?xml version="1.0" encoding="UTF-8" standalone="no"?>
<svg viewBox="0 0 376.16455 283.45358" xmlns="http://www.w3.org/2000/svg">
<defs>
<linearGradient gradientUnits="userSpaceOnUse" id="linearGradient6135" x1="10.58126" x2="10.41815">
<stop offset="0" stop-color="#555753"/>
<stop offset="1" stop-color="#555753" stop-opacity="0"/>
</linearGradient>
<linearGradient gradientTransform="matrix(.37305,0,1.2956199e-8,.27418,233.25692,807.69841)" gradientUnits="userSpaceOnUse" id="linearGradient7062" x1="292.49335" x2="451.60114">
<stop offset="0" stop-color="#c0c0cb"/>
<stop offset="1" stop-color="#fff" stop-opacity="0"/>
</linearGradient>
<radialGradient cx="18.10237" cy="11.31035" gradientTransform="matrix(.16845,.01057,-.01634,.26032,6.69687,.86246)" gradientUnits="userSpaceOnUse" id="radialGradient6027" r="13.28404">
<stop offset="0" stop-color="#babdb6"/>
<stop offset=".6119" stop-color="#b6b9b2"/>
<stop offset="1" stop-color="#888a85"/>
</radialGradient>
<radialGradient cx="17.64271" cy="10.6308" gradientTransform="matrix(.16886,.04525,-.04368,.16302,6.94071,1.3406)" gradientUnits="userSpaceOnUse" id="radialGradient6023" r="13.28404">
<stop offset="0" stop-color="#eeeeec"/>
<stop offset=".2837" stop-color="#babdb6" stop-opacity="0"/>
<stop offset="1" stop-color="#babdb6" stop-opacity="0"/>
</radialGradient>
</defs>
<path d="m242.0735,151.49248c.0198,66.30841-53.7283,120.07248-120.03675,120.07248s-120.0565-53.76407-120.03674-120.07248c-.0198-66.30841 53.7283-120.07248 120.03674-120.07248s120.05651,53.76407 120.03675,120.07248z" fill="#fff" stroke="#000" stroke-linecap="round" stroke-linejoin="round" stroke-width="4"/>
<path d="m122.1875,92.38371c-55.31828,1.12106-79.1875,37.34389-79.18751,81.8125 0,19.85112 10.8245,38.07474 25.15625,52.25-30.52418-12.93437-54.59833-38.1392-66.03125-69.40625 2.90787,63.6827 55.50938,114.5 119.90625,114.5 66.26029,1e-005 120.03125-53.77101 120.03125-120.03125 0-14.46772-2.55222-28.33997-7.25-41.1875 .0841,1.84281.15625,3.69904.15625,5.5625 0,32.53736-12.98751,62.06161-34.03125,83.6875 3.60583-7.98795 5.75-16.52125 5.75-25.375 0-45.17446-24.62116-81.8125-81.84375-81.8125-.89395,0-1.77818-.0178-2.65625,0z" fill-opacity=".3137"/>
<path d="m115.21922,272.06209c0,9.09078-14.66533,9.38135-32.73512,9.38135s-32.73512.69349-32.73512-9.38135c0-17.71594 14.66534-32.0941 32.73512-32.0941s32.73512,14.37816 32.73512,32.0941z" fill="#333" stroke="#000" stroke-linecap="round" stroke-linejoin="round" stroke-width="4"/>
<path d="m69.89368,280.8425c0-16.36756 9.44283-26.43991 9.44283-26.43991s-3.77713,13.84948-3.14761,26.43991h-6.29522z" fill-opacity=".3137" fill-rule="evenodd" stroke="#000" stroke-linejoin="round" stroke-width="4"/>
<path d="m123.81648,224.45086c-46.40344-3.34987-78.50119,11.43724-78.50119,11.43724s10.24128-.24759 16.01714.6714c-10.83067,7.41256-14.38166,22.12279-14.38166,22.12279s12.07786-12.9443 24.46017-17.54853c-10.51293,13.98137-11.91318,36.96048-11.91318,36.96048s12.08966-35.7251 34.67864-43.12357c17.22123-5.64038 35.43449-2.32308 35.43449-2.32308s36.11645-2.49112 48.49082,19.07563c1.62923.77175 1.4682-13.09772-8.78484-18.04747l27.63116-1.43047c-20.15254-8.48528-73.13155-7.79442-73.13155-7.79442z" fill="#4a0" fill-rule="evenodd" stroke="#000" stroke-linejoin="round" stroke-width="4"/>
<path d="m119.375,79.19621c-30.12926.61059-50.93167,11.65327-63.62501,28.75-24.06444-2.58779-44.0625,23.625-44.0625,23.625s18.89113,9.44632 32.0625,1.53125c-2.39923,8.71172-3.5625,18.10595-3.5625,27.90625 0,45.17448 56.1255,81.84375 81.84376,81.84375 26.71661,0 81.84375-36.66927 81.84375-81.84375 0-9.8003-1.16389-19.19453-3.5625-27.90625 13.17137,7.91507 32.03125-1.53125 32.03125-1.53125s-19.97122-26.20456-44.03125-23.625c-13.06166-17.59499-34.70768-28.75-66.28125-28.75-.89395,0-1.77818-.0178-2.65625,0z" fill="#333" stroke="#000" stroke-linecap="round" stroke-linejoin="round" stroke-width="4"/>
<path d="m25.6715,317.53561a18.12379,3.94922 0 0,1 18.12379,3.94922 18.12379,3.94922 0 0,1 -18.12379,3.94922 18.12379,3.94922 0 0,1 -18.12379-3.94922 18.12379,3.94922 0 0,1 18.12379-3.94922" fill="#784421" stroke="#000" stroke-width="2.61242" transform="matrix(.6217,-.78326,.78326,.6217,0,0)"/>
<path d="m329.87698,95.71895a29.21767,29.21767 0 1,1 -58.43535,0 29.21767,29.21767 0 1,1 58.43535,0z" fill="#ff0" stroke="#000" stroke-width="14.42784" transform="matrix(-.16048,-.12737,.12737,-.16048,291.50254,248.93608)"/>
<path d="m283.49722,169.14888-8.96993-7.1197 92.16732-116.11937 8.75679-1.82212 .21315,8.94182-92.16733,116.11937z" fill="url(#linearGradient7062)" stroke="#000" stroke-linecap="square"/>
<path d="m279.02952,165.56728 96.37105-121.41554" fill="url(#linearGradient7062)" fill-rule="evenodd" stroke="#000"/>
<path d="m-321.48483,37.88357a31.92616,3.22853 0 0,1 31.92615,3.22853 31.92616,3.22853 0 0,1 -31.92615,3.22853 31.92616,3.22853 0 0,1 -31.92615-3.22853 31.92616,3.22853 0 0,1 31.92615-3.22853" fill="#ff0" stroke="#000" transform="matrix(-.78326,-.6217,.6217,-.78326,0,0)"/>
<path d="m-32.01102,240.08263a138.04752,138.04752 0 1,1 -276.09503,0 138.04752,138.04752 0 1,1 276.09503,0z" fill="none" stroke="#000" stroke-linecap="square" stroke-width="20.78836" transform="matrix(-.02261,-.01794,.01794,-.02261,247.29381,197.65535)"/>
<g transform="matrix(-.16048,-.12737,.12737,-.16048,305.25704,255.13324)">
<path d="m392.18769,225.23297-40.30181,3.52596" fill="none" stroke="#000" stroke-width="3.30723"/>
<path d="m392.18769,213.42942-40.30181,3.52596" fill="none" stroke="#000" stroke-width="3.30723"/>
<path d="m392.18769,201.62587-40.30181,3.52596" fill="none" stroke="#000" stroke-width="3.30723"/>
<path d="m392.18769,189.82232-40.30181,3.52596" fill="none" stroke="#000" stroke-width="3.30723"/>
<path d="m392.18769,178.01877-40.30181,3.52596" fill="none" stroke="#000" stroke-width="3.30723"/>
<path d="m392.18769,166.21521-40.30181,3.52596" fill="none" stroke="#000" stroke-width="3.30723"/>
<path d="m392.18769,154.41166-40.30181,3.52596" fill="none" stroke="#000" stroke-width="3.30723"/>
<path d="m392.18769,142.60811-40.30181,3.52596" fill="none" stroke="#000" stroke-width="3.30723"/>
<path d="m392.18769,130.80456-40.30181,3.52596" fill="none" stroke="#000" stroke-width="3.30723"/>
<path d="m392.18769,119.00101-40.30181,3.52596" fill="none" stroke="#000" stroke-width="3.30723"/>
<path d="m389.94615,108.98322-35.81873,3.56154" fill="none" stroke="#000" stroke-width="3.13356"/>
</g>
<g transform="matrix(.66057,-.75077,.75077,.66057,-36.89222,161.00265)">
<path d="m130.21703,242.64209c0,9.09078 14.66533,9.38135 32.73511,9.38135s32.73512.69349 32.73512-9.38135c0-17.71594-14.66534-32.0941-32.73512-32.0941s-32.73511,14.37816-32.73511,32.0941z" fill="#333" stroke="#000" stroke-linecap="round" stroke-linejoin="round" stroke-width="4"/>
<path d="m175.54257,251.4225c0-16.36756-9.44283-26.43991-9.44283-26.43991s3.77713,13.84948 3.14761,26.43991h6.29522z" fill-opacity=".3137" fill-rule="evenodd" stroke="#000" stroke-linejoin="round" stroke-width="4"/>
</g>
<path d="m118.40722,149.02218c.004,12.51895-10.14383,22.66953-22.66278,22.66953s-22.66651-10.15058-22.66278-22.66953 10.14383-22.66952 22.66278-22.66952 22.66651,10.15058 22.66278,22.66952z" fill="#fff" stroke="#000" stroke-linecap="round" stroke-linejoin="round" stroke-width="4"/>
<path d="m171.13942,149.02218c.004,12.51895-10.14383,22.66953-22.66277,22.66953s-22.66651-10.15058-22.66278-22.66953 10.14383-22.66952 22.66278-22.66952 22.6665,10.15058 22.66277,22.66952z" fill="#fff" stroke="#000" stroke-linecap="round" stroke-linejoin="round" stroke-width="4"/>
<path d="m150.99473,153.02218c.001,4.17298-3.38127,7.55651-7.55425,7.55651s-7.5555-3.38353-7.55425-7.55651 3.38127-7.5565 7.55425-7.5565 7.5555,3.38352 7.55425,7.5565z"/>
<path d="m108.96439,153.02218c.001,4.17298-3.38127,7.55651-7.55425,7.55651s-7.55551-3.38353-7.55426-7.55651 3.38127-7.5565 7.55426-7.5565 7.5555,3.38352 7.55425,7.5565z"/>
<path d="m200.59375,134.19621-1.875,2.65625c.24888,3.07548.34375,6.20264.34375,9.375 0,45.17449-55.12714,81.84375-81.84375,81.84375-20.70582,2e-005-61.09674-23.75565-76.06251-56.59375 7.61581,40.24628 57.1719,71.37501 80.87501,71.375 26.71661,0 81.84375-36.6693 81.84375-81.84375 0-9.39155-1.07538-18.41026-3.28125-26.8125z" fill-opacity=".3137"/>
<path d="m138.63219,213.65352c-2.29272,3.97309-6.50025,5.8386-9.39677,4.16629s-3.38472-6.2489-1.09029-10.22099 6.50026-5.83861 9.39679-4.1663 3.38471,6.2489 1.09027,10.221z"/>
<path d="m105.89514,213.65352c2.29272,3.97309 6.50025,5.8386 9.39677,4.16629s3.38472-6.2489 1.09029-10.22099-6.50026-5.83861-9.39679-4.1663-3.38471,6.2489-1.09027,10.221z"/>
<path d="m46.90156,241.80348c-3.29969-.34546-6.27774,2.03968-6.6232,5.33939-.0552.5277-.0194,1.04476.0581,1.5457-2.78152.27262-5.09905,2.48582-5.40132,5.37306-.34546,3.29971 2.07403,6.24993 5.37372,6.59538 .75259.0788 1.46564.002 2.15575-.18279-.16989,3.17347 2.17561,5.97779 5.37194,6.31242 3.29972.34544 6.24992-2.07401 6.59538-5.37374 .0864-.82493.006-1.63304-.22216-2.37981 2.57267-.45549 4.66767-2.56718 4.95317-5.29429 .34545-3.29972-2.07401-6.24992-5.37372-6.59538-.5265-.0551-1.04256-.05-1.54246.027-.27261-2.78152-2.45798-5.06471-5.34523-5.36698zm.29299,11.90773c.0399.40692.10311.80409.22148,1.18576-.1726.0306-.34586.0581-.51355.10333 .0228-.4257.008-.85594-.0563-1.26272 .11437-.0112.23577-.009.3484-.0264z" fill="#ff0" stroke="#000" stroke-linecap="round" stroke-linejoin="round" stroke-width="4"/>
<g transform="matrix(6.80178,0,0,6.80178,-46.36887,-14.22412)">
<path d="m24.5026,2.16474-1.44441,4.40927c.63761.79429 2.71544.36878 2.83789-.0329l-1.39347-4.37637z" fill="#eeeeec" fill-rule="evenodd" stroke="#2e3436" stroke-width=".14702"/>
<path d="m14.35917,10.66809c-2.54476,3.01501-2.41969,5.70663-2.41969,5.70663l-.12098,8.31664c0,0 4.03919,2.25164 3.81102,1.81374s.31836-6.74855.40328-6.70197c1.94772.71225 2.79448,1.06703 6.23071,1.57043 2e-006,0-.70001,8.10906-.81408,8.54699 2.30749.687 3.88456.65524 6.19216-.03128-.11407-.43793-.70001-8.51571-.70001-8.51571 3.43623-.68035 4.32332-.99089 6.23071-1.57043 .08492-.04658.61133,6.264.38312,6.70197s3.83118-1.81374 3.83118-1.81374l-.12098-8.31664c0,0 .03881-2.32467-2.33904-5.52968-5.21059-7.02316-15.27723-6.44468-20.56739-.17695z" fill="#babdb6" fill-rule="evenodd" stroke="#2e3436" stroke-width=".14702"/>
<path d="m14.35917,10.66809c-2.54476,3.01501-2.41969,5.70663-2.41969,5.70663l-.12098,8.31664c0,0 4.03919,2.25164 3.81102,1.81374s.31836-6.74855.40328-6.70197c1.94772.71225 2.79448,1.06703 6.23071,1.57043 2e-006,0-.70001,8.10906-.81408,8.54699 2.30749.687 3.88456.65524 6.19216-.03128-.11407-.43793-.70001-8.51571-.70001-8.51571 3.43623-.68035 4.32332-.99089 6.23071-1.57043 .08492-.04658.61133,6.264.38312,6.70197s3.83118-1.81374 3.83118-1.81374l-.12098-8.31664c0,0 .03881-2.32467-2.33904-5.52968-5.21059-7.02316-15.27723-6.44468-20.56739-.17695z" fill="url(#radialGradient6027)" fill-rule="evenodd" stroke="#2e3436" stroke-width=".14702"/>
<path d="m12.18586,14.93384c7.87085,4.49313 16.24975,4.45542 24.78155.19842" fill="none" stroke="#2e3436" stroke-width=".14702"/>
<path d="m14.3275,10.62178c-2.54476,3.01501-2.41969,5.70663-2.41969,5.70663l-.12098,8.31664c0,0 4.03919,2.25164 3.81102,1.81374s.31836-6.74855.40328-6.70197c1.94772.71225 2.79448,1.06703 6.23071,1.57043 2e-006,0-.70001,8.10906-.81408,8.54699 2.30749.687 3.88456.65524 6.19216-.03128-.11407-.43793-.70001-8.51571-.70001-8.51571 3.43623-.68035 4.32332-.99089 6.23071-1.57043 .08492-.04658.61133,6.264.38312,6.70197s3.83118-1.81374 3.83118-1.81374l-.12098-8.31664c0,0 .03881-2.32467-2.33904-5.52968-5.21059-7.02316-15.27723-6.44468-20.56739-.17695z" fill="url(#radialGradient6023)" fill-rule="evenodd" stroke="#2e3436" stroke-width=".14702"/>
<path d="m21.46702,6.22223 .46377,11.91094c-.0087.06549 3.14983.29045 5.06119.04424 .05811-.0075.5041-12.11.5041-12.11-2.17839-.48796-4.29864-.31367-6.02907.15483z" fill="none" stroke="#2e3436" stroke-width=".14702"/>
<path d="m24.49612,3.66735-1.0764,3.28586c.47516.59192 2.02359.27482 2.11484-.02452l-1.03844-3.26134z" fill="#eeeeec" fill-rule="evenodd"/>
<path d="m24.497,11.79463-1.1263,2.48746c.49719.4481 2.11741.20805 2.21289-.01856l-1.08658-2.4689z" fill="#eeeeec" fill-rule="evenodd"/>
<path d="m24.58426,15.15783-1.06268,1.92173c.4691.34618 1.9978.16073 2.08789-.01434l-1.0252-1.90739z" fill="#eeeeec" fill-rule="evenodd"/>
<path d="m24.497,7.94216-1.1263,2.7752c.49719.49993 2.11741.23211 2.21289-.02071l-1.08658-2.75449z" fill="#eeeeec" fill-rule="evenodd"/>
<path d="m24.50879,3.66421-1.09375,3.28125c.47516.59192 2.03375.26809 2.125-.03125l-1.03125-3.25zm0,4.28125-1.125,2.78125c.49719.49993 2.09202.22157 2.1875-.03125l-1.0625-2.75zm0,3.84375-1.125,2.5c.49719.4481 2.09202.19536 2.1875-.03125l-1.0625-2.46875zm.0625,3.375-1.0625,1.90625c.4691.34618 2.00366.17507 2.09375,0l-1.03125-1.90625z" fill="url(#linearGradient6135)" fill-rule="evenodd"/>
</g>
</svg>
