<?xml version="1.0" encoding="UTF-8" standalone="no"?>
<!-- Created with Inkscape (http://www.inkscape.org/) -->
<svg xmlns:inkscape="http://www.inkscape.org/namespaces/inkscape" xmlns:rdf="http://www.w3.org/1999/02/22-rdf-syntax-ns#" xmlns="http://www.w3.org/2000/svg" xmlns:xlink="http://www.w3.org/1999/xlink" xmlns:ns1="http://sozi.baierouge.fr" xmlns:cc="http://creativecommons.org/ns#" xmlns:dc="http://purl.org/dc/elements/1.1/" xmlns:sodipodi="http://sodipodi.sourceforge.net/DTD/sodipodi-0.dtd" id="svg8404" sodipodi:docname="warrior.svg" viewBox="0 0 76.138 148.01" version="1.1" inkscape:version="0.48.5 r10040">
  <sodipodi:namedview id="base" bordercolor="#666666" inkscape:pageshadow="2" inkscape:window-y="27" fit-margin-left="0" pagecolor="#ffffff" fit-margin-top="0" inkscape:window-maximized="1" inkscape:zoom="1.3058621" inkscape:window-x="0" inkscape:window-height="708" showgrid="false" borderopacity="1.0" inkscape:current-layer="capa1" inkscape:cx="107.13826" inkscape:cy="164.31593" fit-margin-right="0" fit-margin-bottom="0" inkscape:window-width="1366" inkscape:pageopacity="0.0" inkscape:document-units="px"/>
  <g id="capa1" inkscape:label="Capa 1" inkscape:groupmode="layer" transform="translate(-486.19 -509.26)">
    <g id="g6158" transform="matrix(.79164 0 0 .79164 225.57 209.85)">
      <rect id="rect4015" style="stroke-linejoin:round;stroke:#000000;fill:#7d7598" transform="scale(-1,1)" height="15.879" width="20.712" y="480.4" x="-404.13"/>
      <path id="path3852-7" sodipodi:rx="11.075905" sodipodi:ry="11.075905" style="stroke-linejoin:round;stroke:#000000;fill:#f8d5af" sodipodi:type="arc" d="m407.76 267.61c0 6.117-4.9588 11.076-11.076 11.076-6.1171 0-11.076-4.9588-11.076-11.076 0-6.117 4.9588-11.076 11.076-11.076 6.117 0 11.076 4.9588 11.076 11.076z" transform="matrix(-1 0 0 1 805.84 219.2)" sodipodi:cy="267.6138" sodipodi:cx="396.68149"/>
      <path id="rect3875" d="m414.08 418.98-5.6619-11.909-6.0443 11.909v54.844h11.706z" sodipodi:nodetypes="cccccc" style="stroke-linejoin:round;stroke:#000600;stroke-width:1.0526;fill:#86adc5" inkscape:connector-curvature="0"/>
      <path id="rect3872" d="m423.92 471.63c-10.075 1.5094-19.647 1.6352-28.715 0v8.6165h28.715c1.3837-2.8722 1.0063-5.6186 0-8.6165z" sodipodi:nodetypes="ccccc" style="stroke-linejoin:round;stroke:#000600;stroke-width:1.1458;fill:#fff24d" inkscape:connector-curvature="0"/>
      <path id="path3005-4" d="m387.83 530.6c-2.1843 1.6742 1.6068 4.2689 0.1676 1.4557-0.26203 3.3181-0.30548 9.0041 4.1748 10.106 5.5145 1.4902 8.9217 5.3833 11.881 10.113 2.3083 3.6747 3.9053 10.778-2.6848 9.8033-4.9316 0.36461-9.6412-1.7717-14.604-1.0458-4.7705 0.23158-9.5287 0.33265-14.194-0.88046-5.6284 0.25887-10.447 1.6138-15.821 0.24139-3.0206-2.594 2.0244-9.0307 1.6381-12.252 2.7284-5.0032 3.2161-9.6502 3.1222-15.695-3.8428-1.4919-4.7232-3.9202-5.115-3.8107" sodipodi:nodetypes="ccccccccccc" style="stroke:#000000;stroke-width:1px;fill:#68391b" inkscape:connector-curvature="0"/>
      <path id="path3003-1" d="m394.71 513.9c-8.1206-4.4259-17.677-3.8813-26.622-3.9002-3.7538 0.1518-8.7686 0.59428-10.497 4.5127-0.65531 3.5318-0.43524 7.1881-1.2032 10.732-0.9067 4.3921 3.0577 8.1051 7.3522 7.5911 6.3809-0.0147 12.656-1.3627 18.988-1.9049 3.2716-0.67097 7.2302 2.1936 9.8507-0.71673 2.2589-2.7561 1.3757-6.6042 1.9763-9.8786 0.22632-2.1411 0.62242-4.2926 0.15465-6.4352z" style="stroke:#000000;stroke-width:1px;fill:#9a5625" inkscape:connector-curvature="0"/>
      <path id="path2994" d="m381.41 427.05c3.9714 20.479 3.8281 43.194 12.878 61.882 9.5711 20.401-5.1024 24.741-21.115 22.595-17.304 0.97115-47.69 11.36-42.535-14.434 5.2463-15.131-0.95603-38.285 7.8618-52.026 9.7002-15.479 24.842-24.901 42.91-18.016z" sodipodi:nodetypes="cccccc" style="stroke:#000600;stroke-width:1px;fill:#c0bfbd" inkscape:connector-curvature="0"/>
      <path id="path2985" d="m385.2 390.7c3.798 4.1415 13.711 21.354 13.9 33.551 3.3368 16.344-12.479 25.713-26.362 23.713-18.979 1.4988-33.124-21.167-26.842-39.433 0.90623-24.915 23.705-24.53 39.304-17.831z" sodipodi:nodetypes="ccccc" style="stroke:#000000;stroke-width:.97202px;fill:#f5d1af" inkscape:connector-curvature="0"/>
      <path id="path3005" d="m361.77 533.14c-2.1843 1.6742 1.6068 4.2689 0.1676 1.4557-0.26203 3.3181-0.30548 9.0041 4.1748 10.106 5.5145 1.4902 8.9217 5.3833 11.881 10.113 2.3083 3.6747 3.9053 10.778-2.6848 9.8033-4.9316 0.36461-9.6412-1.7717-14.604-1.0458-4.7705 0.23158-9.5287 0.33265-14.194-0.88046-5.6284 0.25887-10.447 1.6138-15.821 0.24139-3.0206-2.594 2.0244-9.0307 1.6381-12.252 2.7284-5.0032 3.2161-9.6502 3.1222-15.695-3.8428-1.4919-4.7232-3.9202-5.115-3.8107" sodipodi:nodetypes="ccccccccccc" style="stroke:#000000;stroke-width:1px;fill:#965525" inkscape:connector-curvature="0"/>
      <path id="path3062" d="m338.68 467.08c0 6.0355-1.2698 17.37 1.6318 20.857 6.1513 7.3933 14.656 3.9088 17.032 1.49 5.308-5.4027 2.9469-12.732 2.9469-24.803s-5.4974-21.856-12.279-21.856c-6.7814 0-9.3319 12.241-9.3319 24.312z" sodipodi:nodetypes="ssssss" style="fill:#ffff00" inkscape:connector-curvature="0"/>
      <path id="path3065" sodipodi:nodetypes="ssssss" style="fill:#ffff00" inkscape:connector-curvature="0" d="m338.68 467.08c0 6.0355-1.2698 17.37 1.6318 20.857 6.1513 7.3933 14.656 3.9088 17.032 1.49 5.308-5.4027 2.9469-12.732 2.9469-24.803s-5.4974-21.856-12.279-21.856c-6.7814 0-9.3319 12.241-9.3319 24.312z"/>
      <path id="path3067" d="m338.68 467.08c0 6.0355-1.2698 17.37 1.6318 20.857 6.1513 7.3933 14.656 3.9088 17.032 1.49 5.308-5.4027 2.9469-12.732 2.9469-24.803s-5.4974-21.856-12.279-21.856c-6.7814 0-9.3319 12.241-9.3319 24.312z" sodipodi:nodetypes="ssssss" style="fill:#ffff00" inkscape:connector-curvature="0"/>
      <path id="path3069" sodipodi:nodetypes="ssssss" style="fill:#ffff00" inkscape:connector-curvature="0" d="m338.68 467.08c0 6.0355-1.2698 17.37 1.6318 20.857 6.1513 7.3933 14.656 3.9088 17.032 1.49 5.308-5.4027 2.9469-12.732 2.9469-24.803s-5.4974-21.856-12.279-21.856c-6.7814 0-9.3319 12.241-9.3319 24.312z"/>
      <path id="path3852" sodipodi:rx="11.075905" sodipodi:ry="11.075905" style="stroke-linejoin:round;stroke:#000000;fill:#f8d5af" sodipodi:type="arc" d="m407.76 267.61c0 6.117-4.9588 11.076-11.076 11.076-6.1171 0-11.076-4.9588-11.076-11.076 0-6.117 4.9588-11.076 11.076-11.076 6.117 0 11.076 4.9588 11.076 11.076z" transform="matrix(-1 0 0 1 748.36 227.45)" sodipodi:cy="267.6138" sodipodi:cx="396.68149"/>
      <path id="path3071" d="m338.68 467.08c0 6.0355-1.2698 17.37 1.6318 20.857 6.1513 7.3933 14.656 3.9088 17.032 1.49 5.308-5.4027 2.9469-12.732 2.9469-24.803s-5.4974-21.856-12.279-21.856c-6.7814 0-9.3319 12.241-9.3319 24.312z" sodipodi:nodetypes="ssssss" style="stroke:#000000;fill:#9e9d99" inkscape:connector-curvature="0"/>
      <path id="path3878" d="m408.27 472.11c0-30.377-0.6904-31.068-0.6904-31.068" style="stroke:#000000;stroke-width:1px;fill:none" inkscape:connector-curvature="0"/>
      <path id="path3003" d="m368.64 516.44c-8.1206-4.4259-17.677-3.8813-26.622-3.9002-3.7538 0.1518-8.7686 0.59428-10.497 4.5127-0.65531 3.5318-0.43524 7.1881-1.2032 10.732-0.9067 4.3921 3.0577 8.1051 7.3522 7.5911 6.3809-0.0147 12.656-1.3627 18.988-1.9049 3.2716-0.67097 7.2302 2.1936 9.8507-0.71673 2.2589-2.7561 1.3757-6.6042 1.9763-9.8786 0.22632-2.1411 0.62242-4.2926 0.15465-6.4352z" style="stroke:#000000;stroke-width:1px;fill:#9a5625" inkscape:connector-curvature="0"/>
      <path id="path3887" d="m398.38 435.07c-20.021-0.89546-24.854 2.5189-24.854 2.5189" sodipodi:nodetypes="cc" style="stroke:#000000;stroke-width:.90789px;fill:none" inkscape:connector-curvature="0"/>
      <path id="path3891" sodipodi:rx="2.7615838" sodipodi:ry="2.7615838" style="fill:#000000" sodipodi:type="arc" d="m272.02 171.42c0 1.5252-1.2364 2.7616-2.7616 2.7616s-2.7616-1.2364-2.7616-2.7616 1.2364-2.7616 2.7616-2.7616 2.7616 1.2364 2.7616 2.7616z" transform="matrix(-1 0 0 1 662.77 243.69)" sodipodi:cy="171.41698" sodipodi:cx="269.25443"/>
      <path id="path3891-2" sodipodi:rx="2.7615838" sodipodi:ry="2.7615838" style="fill:#000000" sodipodi:type="arc" d="m272.02 171.42c0 1.5252-1.2364 2.7616-2.7616 2.7616s-2.7616-1.2364-2.7616-2.7616 1.2364-2.7616 2.7616-2.7616 2.7616 1.2364 2.7616 2.7616z" transform="matrix(-1 0 0 1 650.66 245)" sodipodi:cy="171.41698" sodipodi:cx="269.25443"/>
      <path id="path4133-8" style="stroke-linejoin:round;stroke:#000000;stroke-width:.85391;fill:#e2e1dd" d="m336.07 478.97c0.36856 9.0722-0.36169 13.886 7.257 13.886s21.339 1.4592 21.339-4.3307 4.7366-11.738-2.8576-11.127c-15.983 1.2868-25.894-2.257-25.738 1.5715z" inkscape:transform-center-x="-14.253602" inkscape:connector-curvature="0" sodipodi:nodetypes="sssss"/>
      <path id="rect4203" d="m363.79 406.56c-3.5204 9.9108-5.532 23.845-1.0058 35.265 11.912 1.8212 22.818-1.8896 33.725-1.5771l-9.5625 14.594-41.25-3.5312-0.46875-6.0312h-3.0625v-38.719z" sodipodi:nodetypes="ccccccccc" style="stroke-linejoin:round;stroke-opacity:.75117;stroke:#000000;fill:#87756b" inkscape:connector-curvature="0"/>
      <path id="path4133" d="m332.07 454.33c0 8.0175 4.1416 6.102 11.966 5.3504 9.0983-0.87391 19.818 2.4792 20.569-5.3504 0.76611-7.9808-7.4096-14.517-16.55-14.517-9.1402 0-15.986 6.4995-15.986 14.517z" sodipodi:nodetypes="sssss" style="stroke-linejoin:round;stroke:#000000;stroke-width:1.1006;fill:#cdcdcd" inkscape:connector-curvature="0"/>
      <path id="path4156" d="m397.94 407.22c-13.796 0.0658-46.099 0.46342-57.6 9.5993-1.5059-17.703-1.1183-38.684 30.53-38.104 15.692 0.46561 20.23 14.527 27.071 28.505z" sodipodi:nodetypes="cccc" style="stroke:#000000;stroke-width:.99883px;fill:#c0bfbd" inkscape:connector-curvature="0"/>
      <path id="rect4183" d="m385.42 458.86h-16.093l4.0233 29.672 15.59 11.316 4.5262-11.818z" sodipodi:nodetypes="cccccc" style="stroke-linejoin:round;stroke-opacity:.75117;stroke:#000000;stroke-width:1.4;fill:#ffffff" inkscape:connector-curvature="0"/>
      <rect id="rect5811" style="fill:#000000" transform="matrix(-.99419 .10766 .10766 .99419 0 0)" height="2.5462" width="12.426" y="449.16" x="-353.24"/>
      <rect id="rect5811-5" style="fill:#000000" transform="matrix(-.99372 -.11186 -.11186 .99372 0 0)" height="2.5462" width="12.426" y="365.17" x="-428.89"/>
      <path id="path4128-2" sodipodi:rx="6.6154652" sodipodi:ry="4.6608958" style="stroke-linejoin:round;stroke:#000000;fill:#f5d1af" sodipodi:type="arc" sodipodi:start="0" sodipodi:open="true" transform="matrix(-1 0 0 1 913.88 226.59)" sodipodi:cy="197.0126" sodipodi:cx="522.32104" sodipodi:end="5.0614548" d="m528.94 197.01c0 2.5742-2.9618 4.6609-6.6155 4.6609-3.6536 0-6.6155-2.0868-6.6155-4.6609s2.9618-4.6609 6.6155-4.6609c0.77171 0 1.5375 0.0951 2.2626 0.28108"/>
      <path id="path5849" sodipodi:rx="10.946721" sodipodi:ry="12.675151" style="fill:#770def" sodipodi:type="arc" sodipodi:start="0" sodipodi:open="true" inkscape:transform-center-x="7.9284655" inkscape:transform-center-y="4.0330025" transform="matrix(-.30405 -.95265 -.95265 .30405 692.61 678.33)" sodipodi:cy="229.62967" sodipodi:cx="286.34317" sodipodi:end="3.1415927" d="m297.29 229.63c0 7.0003-4.901 12.675-10.947 12.675-6.0457 0-10.947-5.6749-10.947-12.675"/>
      <path id="path6074" style="fill:#e2e1dd" d="m351.39 383.94c-5.4693 5.722-5.1888 6.8094-5.9131 8.5273-0.60377 1.3914-1.8306 5.5981-2.5537 7.6705-1.1979 3.0724-2.4154 10.858-0.92479 13.168 3.202-0.17848 9.6268-3.1749 10.975-3.7546 1.6069-0.92751-0.47715-4.0088-0.63386-5.5683-0.14432-2.1899-0.25875-3.5437 0.15655-6.7233 0.3438-1.1326 0.85646-2.1262 1.3331-3.2114 0.60387-2.8094 3.5141-8.0399 2.9448-10.934-0.71872-1.617-3.7636-0.40751-5.3838 0.82585z" inkscape:transform-center-x="-3.5784472" sodipodi:nodetypes="cccccccccc" inkscape:connector-curvature="0"/>
      <path id="path6076" d="m343.69 443.72c-4.1214 0.80161-7.6291 4.3044-9.254 8.6569-1.1644 0.99346-1.4458 3.2219-0.3378 4.3928 0.71129 0.75717 1.812 0.48229 2.521-0.13195 0.40021-0.22519 0.92045 0.0286 1.3717-0.0348 1.8267 0.02 3.8266-0.28285 5.21-1.7832 0.88061-0.96568 1.3018-2.3775 1.274-3.757 0.068-2.4781-0.38344-4.9221-0.78502-7.3427z" style="fill:#e2e1dd" inkscape:connector-curvature="0"/>
      <path id="path6078" d="m343.18 461.61c-2.183-1.1105-3.6991 2.2126-2.9368 6.0261-1.3089 1.7366-0.0923 4.6624 0.29953 6.8339 1.0997 1.7499 2.8929 0.74209 4.9838 1.4407 2.0681-0.3615 3.4094-3.9882 2.0252-6.0239-0.25067-1.7826-0.55442-3.8484 0.22249-5.533 1.834-1.3842-2.2937-3.9225-3.7997-3.2895-0.46139 0.0735-1.1508 0.14541-1.6125 0.19511z" sodipodi:nodetypes="ccccccccc" style="fill:#e2e1dd" inkscape:connector-curvature="0"/>
      <path id="path6118" d="m341.82 515.68c-5.5911-2.2362-9.7991 4.4399-9.203 9.3951-1.2768 7 14.412 9.5951 11.635 1.7637-1.8969-3.543 4.2156-10.502-2.4316-11.159z" style="fill:#9a654d" inkscape:connector-curvature="0"/>
      <path id="path6122" d="m336.53 538.81c2.6466 6.3779-9.5118 17.622 0.29386 19.925 4.7-0.12189 14.508 5.6789 15.922-0.65887-5.0212-5.0569-6.7734-11.837-8.9162-18.413-1.3839-3.201-5.0143-2.5267-7.2992-0.8535z" style="fill:#9a654d" inkscape:connector-curvature="0"/>
    </g>
  </g>
  <metadata>
    <rdf:RDF>
      <cc:Work>
        <dc:format>image/svg+xml</dc:format>
        <dc:type rdf:resource="http://purl.org/dc/dcmitype/StillImage"/>
        <cc:license rdf:resource="http://creativecommons.org/licenses/publicdomain/"/>
        <dc:publisher>
          <cc:Agent rdf:about="http://openclipart.org/">
            <dc:title>Openclipart</dc:title>
          </cc:Agent>
        </dc:publisher>
      </cc:Work>
      <cc:License rdf:about="http://creativecommons.org/licenses/publicdomain/">
        <cc:permits rdf:resource="http://creativecommons.org/ns#Reproduction"/>
        <cc:permits rdf:resource="http://creativecommons.org/ns#Distribution"/>
        <cc:permits rdf:resource="http://creativecommons.org/ns#DerivativeWorks"/>
      </cc:License>
    </rdf:RDF>
  </metadata>
</svg>
